:FULLY-SPECIFIED
:FORCE-ALL-JOINTS-BE-3DOF
:DEGREES
849
root 3.62455 16.336 27.8406 -6.94046 3.38123 -2.47502
lfemur -23.8139 1.81277 -12.1799
ltibia 34.2046 -0 0
lfoot -4.3199 -10.5042 0.299821
ltoes 5.23715 -0 0
rfemur -23.79 -13.8572 15.0597
rtibia 51.0543 -0 0
rfoot 5.24853 10.3083 -0.176813
rtoes -34.656 0 0
lowerback 4.00478 3.22296 -0.298414
upperback 1.06168 4.28611 0.0429416
thorax -0.894596 2.15165 0.46238
lowerneck -6.52578 -2.89081 3.17955
upperneck 6.99225 -4.36474 2.15945
head 3.38803 -1.98021 -0.065223
lclavicle 4.46769e-014 1.51076e-014 0
lhumerus -48.5709 -11.4755 85.083
lradius 55.2995 -0 0
lwrist 18.8575 0 0
lhand 1.68543 5.18573 -0.0356415
lfingers 7.12502 -0 0
lthumb 27.18 33.0248 -0.112701
rclavicle 4.46769e-014 1.51076e-014 0
rhumerus -36.0787 13.5425 -70.7349
rradius 56.6619 -0 0
rwrist 4.68601 0 0
rhand -16.2771 -23.6789 -0.301025
rfingers 7.12502 -0 0
rthumb 9.90299 -52.8962 -0.163585
850
root 3.64528 16.3447 27.9358 -7.31207 3.96899 -2.28014
lfemur -23.2302 2.11092 -12.6084
ltibia 34.3695 -0 0
lfoot -4.58318 -11.0984 0.31075
ltoes 5.87975 -0 0
rfemur -25.9929 -14.2916 15.894
rtibia 50.4203 -0 0
rfoot 4.94086 10.6079 -0.18325
rtoes -34.6022 0 0
lowerback 4.55798 2.98003 -0.570524
upperback 1.25283 3.94761 -0.0537143
thorax -1.00229 1.98342 0.520235
lowerneck -6.57503 -2.88217 3.15161
upperneck 6.90814 -4.35738 2.25027
head 3.37149 -1.97483 -0.0306129
lclavicle 4.46769e-014 1.51076e-014 0
lhumerus -47.8934 -12.2507 84.9362
lradius 55.6266 -0 0
lwrist 19.1136 0 0
lhand 2.18703 5.14868 -0.0369394
lfingers 7.12502 -0 0
lthumb 27.6587 32.902 -0.116805
rclavicle 4.46769e-014 1.51076e-014 0
rhumerus -36.5072 12.1917 -69.5737
rradius 56.4716 -0 0
rwrist 4.6747 0 0
rhand -15.3025 -23.8404 -0.312034
rfingers 7.12502 -0 0
rthumb 10.8411 -52.9874 -0.169564
851
root 3.66601 16.3535 28.0309 -7.68195 4.558 -2.08893
lfemur -22.6485 2.41341 -13.0338
ltibia 34.5344 -0 0
lfoot -4.84656 -11.6927 0.318948
ltoes 6.52236 -0 0
rfemur -28.2063 -14.6945 16.7466
rtibia 49.7863 -0 0
rfoot 4.63316 10.9075 -0.188077
rtoes -34.5484 0 0
lowerback 5.11221 2.73973 -0.844912
upperback 1.44448 3.60943 -0.151463
thorax -1.11013 1.81529 0.5784
lowerneck -6.62427 -2.87355 3.12367
upperneck 6.82403 -4.34989 2.34108
head 3.35495 -1.96945 0.0039955
lclavicle 4.46769e-014 1.51076e-014 0
lhumerus -47.2118 -13.0242 84.7796
lradius 55.9537 -0 0
lwrist 19.3697 0 0
lhand 2.68864 5.11162 -0.037913
lfingers 7.12502 -0 0
lthumb 28.1375 32.7793 -0.119883
rclavicle 4.46769e-014 1.51076e-014 0
rhumerus -36.9614 10.8495 -68.4078
rradius 56.2812 -0 0
rwrist 4.66338 0 0
rhand -14.3278 -24.0021 -0.320293
rfingers 7.12502 -0 0
rthumb 11.7792 -53.0787 -0.17405
852
root 3.68674 16.3623 28.1261 -8.05019 5.14822 -1.90137
lfemur -22.0691 2.7202 -13.4562
ltibia 34.6993 -0 0
lfoot -5.11001 -12.287 0.324414
ltoes 7.16497 -0 0
rfemur -30.4296 -15.0651 17.6161
rtibia 49.1522 -0 0
rfoot 4.32543 11.2071 -0.191296
rtoes -34.4946 0 0
lowerback 5.66749 2.5021 -1.12156
upperback 1.63664 3.27158 -0.25031
thorax -1.21814 1.64727 0.636876
lowerneck -6.67352 -2.86496 3.09572
upperneck 6.73994 -4.34227 2.43188
head 3.33842 -1.96405 0.0386022
lclavicle 4.46769e-014 1.51076e-014 0
lhumerus -46.5258 -13.7957 84.613
lradius 56.2807 -0 0
lwrist 19.6259 0 0
lhand 3.19024 5.07456 -0.0385621
lfingers 7.12502 -0 0
lthumb 28.6162 32.6565 -0.121935
rclavicle 4.46769e-014 1.51076e-014 0
rhumerus -37.4414 9.51676 -67.236
rradius 56.0908 -0 0
rwrist 4.65207 0 0
rhand -13.3531 -24.1639 -0.3258
rfingers 7.12502 -0 0
rthumb 12.7173 -53.17 -0.177041
853
root 3.70747 16.371 28.2212 -8.41684 5.73963 -1.71745
lfemur -21.4917 3.03122 -13.8757
ltibia 34.8642 -0 0
lfoot -5.3735 -12.8813 0.327147
ltoes 7.80758 -0 0
rfemur -32.6622 -15.4027 18.5014
rtibia 48.5182 -0 0
rfoot 4.0177 11.5067 -0.192905
rtoes -34.4408 0 0
lowerback 6.22381 2.26716 -1.40046
upperback 1.82932 2.93407 -0.35026
thorax -1.32632 1.47937 0.695664
lowerneck -6.72278 -2.85639 3.06776
upperneck 6.65586 -4.33451 2.52266
head 3.32188 -1.95865 0.0732073
lclavicle 4.46769e-014 1.51076e-014 0
lhumerus -45.8353 -14.5653 84.4363
lradius 56.6078 -0 0
lwrist 19.882 0 0
lhand 3.69185 5.03749 -0.0388866
lfingers 7.12502 -0 0
lthumb 29.0949 32.5337 -0.122961
rclavicle 4.46769e-014 1.51076e-014 0
rhumerus -37.947 8.19395 -66.0573
rradius 55.9004 -0 0
rwrist 4.64076 0 0
rhand -12.3783 -24.3258 -0.328554
rfingers 7.12502 -0 0
rthumb 13.6554 -53.2613 -0.178537
854
root 3.7282 16.3798 28.3164 -8.78198 6.33219 -1.53714
lfemur -20.9164 3.34645 -14.2921
ltibia 35.0291 -0 0
lfoot -5.637 -13.4756 0.327147
ltoes 8.45018 -0 0
rfemur -34.9035 -15.7068 19.401
rtibia 47.8842 -0 0
rfoot 3.70996 11.8063 -0.192905
rtoes -34.3869 0 0
lowerback 6.78118 2.03494 -1.68158
upperback 2.02254 2.59689 -0.451316
thorax -1.43465 1.31157 0.754765
lowerneck -6.77204 -2.84784 3.0398
upperneck 6.5718 -4.32663 2.61344
head 3.30536 -1.95323 0.107811
lclavicle 4.46769e-014 1.51076e-014 0
lhumerus -45.1397 -15.3327 84.2494
lradius 56.9349 -0 0
lwrist 20.1381 0 0
lhand 4.19345 5.00041 -0.0388866
lfingers 7.12502 -0 0
lthumb 29.5737 32.4108 -0.122961
rclavicle 4.46769e-014 1.51076e-014 0
rhumerus -38.4784 6.88175 -64.8704
rradius 55.7101 -0 0
rwrist 4.62944 0 0
rhand -11.4036 -24.4877 -0.328554
rfingers 7.12502 -0 0
rthumb 14.5935 -53.3527 -0.178537
855
root 3.74893 16.3885 28.4115 -9.14568 6.92589 -1.36042
lfemur -20.3433 3.66582 -14.7054
ltibia 35.194 -0 0
lfoot -5.90049 -14.0699 0.324414
ltoes 9.09279 -0 0
rfemur -37.1526 -15.9767 20.3136
rtibia 47.2502 -0 0
rfoot 3.40223 12.106 -0.191296
rtoes -34.3331 0 0
lowerback 7.33961 1.80547 -1.9649
upperback 2.2163 2.26005 -0.553485
thorax -1.54316 1.14389 0.81418
lowerneck -6.8213 -2.83932 3.01183
upperneck 6.48775 -4.3186 2.7042
head 3.28883 -1.9478 0.142412
lclavicle 4.46769e-014 1.51076e-014 0
lhumerus -44.439 -16.0979 84.0521
lradius 57.262 -0 0
lwrist 20.3942 0 0
lhand 4.69506 4.96334 -0.0385621
lfingers 7.12502 -0 0
lthumb 30.0524 32.288 -0.121935
rclavicle 4.46769e-014 1.51076e-014 0
rhumerus -39.0357 5.58078 -63.6742
rradius 55.5197 -0 0
rwrist 4.61813 0 0
rhand -10.4289 -24.6496 -0.3258
rfingers 7.12502 -0 0
rthumb 15.5316 -53.444 -0.177041
856
root 3.76966 16.3973 28.5067 -9.508 7.52068 -1.18727
lfemur -19.7723 3.9893 -15.1157
ltibia 35.3589 -0 0
lfoot -6.16394 -14.6642 0.318948
ltoes 9.7354 -0 0
rfemur -39.4088 -16.2118 21.2377
rtibia 46.6161 -0 0
rfoot 3.0945 12.4056 -0.188077
rtoes -34.2793 0 0
lowerback 7.8991 1.57877 -2.25042
upperback 2.41062 1.92356 -0.656771
thorax -1.65183 0.976319 0.873908
lowerneck -6.87057 -2.83082 2.98385
upperneck 6.40371 -4.31045 2.79494
head 3.27231 -1.94237 0.177012
lclavicle 4.46769e-014 1.51076e-014 0
lhumerus -43.7327 -16.8607 83.8443
lradius 57.589 -0 0
lwrist 20.6504 0 0
lhand 5.19666 4.92628 -0.037913
lfingers 7.12502 -0 0
lthumb 30.5311 32.1652 -0.119883
rclavicle 4.46769e-014 1.51076e-014 0
rhumerus -39.619 4.29171 -62.4678
rradius 55.3293 -0 0
rwrist 4.60682 0 0
rhand -9.45418 -24.8114 -0.320293
rfingers 7.12502 -0 0
rthumb 16.4697 -53.5353 -0.17405
857
root 3.79039 16.4061 28.6018 -9.86903 8.11655 -1.01768
lfemur -19.2034 4.31684 -15.5229
ltibia 35.5238 -0 0
lfoot -6.42732 -15.2585 0.31075
ltoes 10.378 -0 0
rfemur -41.6712 -16.4118 22.1718
rtibia 45.9821 -0 0
rfoot 2.7868 12.7052 -0.18325
rtoes -34.2255 0 0
lowerback 8.45966 1.35486 -2.53812
upperback 2.60552 1.58743 -0.76118
thorax -1.76067 0.808862 0.933952
lowerneck -6.91984 -2.82235 2.95586
upperneck 6.31969 -4.30216 2.88568
head 3.25579 -1.93692 0.211611
lclavicle 4.46769e-014 1.51076e-014 0
lhumerus -43.0206 -17.621 83.6257
lradius 57.9161 -0 0
lwrist 20.9065 0 0
lhand 5.69827 4.88922 -0.0369394
lfingers 7.12502 -0 0
lthumb 31.0099 32.0425 -0.116805
rclavicle 4.46769e-014 1.51076e-014 0
rhumerus -40.2285 3.01522 -61.25
rradius 55.1389 -0 0
rwrist 4.5955 0 0
rhand -8.47949 -24.9731 -0.312034
rfingers 7.12502 -0 0
rthumb 17.4077 -53.6266 -0.169564
858
root 3.81112 16.4148 28.697 -10.2288 8.71346 -0.851626
lfemur -18.6366 4.64838 -15.927
ltibia 35.6887 -0 0
lfoot -6.6906 -15.8527 0.299821
ltoes 11.0206 -0 0
rfemur -43.9387 -16.5762 23.1142
rtibia 45.3481 -0 0
rfoot 2.47913 13.0047 -0.176813
rtoes -34.1717 0 0
lowerback 9.02129 1.13379 -2.82796
upperback 2.80099 1.25165 -0.866716
thorax -1.86968 0.64152 0.994312
lowerneck -6.96911 -2.81389 2.92787
upperneck 6.23568 -4.29374 2.9764
head 3.23928 -1.93146 0.246207
lclavicle 4.46769e-014 1.51076e-014 0
lhumerus -42.3024 -18.3786 83.3963
lradius 58.2432 -0 0
lwrist 21.1626 0 0
lhand 6.19987 4.85217 -0.0356415
lfingers 7.12502 -0 0
lthumb 31.4886 31.9197 -0.112701
rclavicle 4.46769e-014 1.51076e-014 0
rhumerus -40.8645 1.75202 -60.0199
rradius 54.9486 -0 0
rwrist 4.58419 0 0
rhand -7.50483 -25.1346 -0.301025
rfingers 7.12502 -0 0
rthumb 18.3458 -53.7178 -0.163585
